# xmcd CD database file
#
# Track frame offsets:
#	150
#	14917
#	26959
#	39945
#	52706
#	64044
#	75094
#	85961
#	95352
#	109250
#	119389
#	129803
#	143238
#	150645
#	161941
#	171960
#	184600
#	192141
#	203839
#	217935
#
# Disc length: 3037 seconds
#
# Revision: 0
# Processed by: cddbd v1.5.2PL0 Copyright (c) Steve Scherf et al.
# Submitted via: CDex 1.51
#
DISCID=060bdb14
DTITLE=Luis Mariano - Platinum Collection  [CD 3-3]
DYEAR=2007
DGENRE=operette
TTITLE0=1958 - Lisa je t'aime
TTITLE1=1949 - Je n'aime que toi
TTITLE2=1958 - Je t'aimerai t'aimerai
TTITLE3=1958 - Patricia
TTITLE4=1958 - Ma jolie
TTITLE5=1958 - Toi que j'aime
TTITLE6=1957 - Amour, amour
TTITLE7=1958 - Le mari modèle
TTITLE8=1958 - Merci
TTITLE9=1958 - Quelqu'un que j'aime
TTITLE10=1958 - Guitare et tambourin
TTITLE11=1958 - Plus je t'aime
TTITLE12=1959 - Presto presto
TTITLE13=1959 - Vénus
TTITLE14=1959 - Andorami
TTITLE15=1950 - Pour notre amour
TTITLE16=1958 - Extraordinaire
TTITLE17=19xx - Ca c'est l'amour
TTITLE18=1952 - Danse dans ma romance
TTITLE19=1958 - Que l'amour me pardonne
EXTD=YEAR: 2007
EXTT0=
EXTT1=
EXTT2=
EXTT3=
EXTT4=
EXTT5=
EXTT6=
EXTT7=
EXTT8=
EXTT9=
EXTT10=
EXTT11=
EXTT12=
EXTT13=
EXTT14=
EXTT15=
EXTT16=
EXTT17=
EXTT18=
EXTT19=
PLAYORDER=
